<svg xmlns="http://www.w3.org/2000/svg" viewBox="0 0 1000 1000"><defs><style>.cls-1{fill:#101820;}.cls-2{fill:#c10230;}</style></defs><g id="Capa_1" data-name="Capa 1"><path class="cls-1" d="M167.6,704.53c0-.33-.1-.65-.16-1-6.25-27.57-6.84-55.67-6.94-83.77,0-2-1.26-5,1.43-5.77,12-3,22.72-9.39,34.42-13,2.23-.71,5-.13,7.61,1.17.65.32,2.63.91,3.92,1.42,2.24,1.59,3.92,3.89,3.79,5.84-.22,4.24-4.43,1.75-6.67,2.88-2.53,1.3-5.15,2-1.33,5,2.53,2,3.5,4.51,2.5,8-.62,2.21-1.5,5.87,2.26,6.48,4.06.68,5.87,3.24,7.88,6.32,2.36,3.63,16.43,4.86,17.43,1.33,2.63-9.62,10.8,1.33,13.81-4.6,3.24,4,4.54-.52,5.41-1.82s2.92-5-2-5.15c-.32,0-.61-1-.87-2a1.42,1.42,0,0,1,1-1.75c2.2-.71,3-4.6,5.45-4.47a1.39,1.39,0,0,0,1.32-2.07c-1.52-2.5-4.31-3.47-6.22-5a5.44,5.44,0,0,1-2.17-5c.13-2.24,2.33-1.52,3.76-1.78s2.88-.2,3.37-1.69c.23-.65-.45-2.36-.74-2.36-3.83-.13-5.94-3.44-8.92-4.8-2.23-1-6.48-2.17-7.61-1.3-3.79,3-6.84,3.8-11.34,1.53-3.34-1.69-4.19,3.6-3.89,3.79,4.11,2.53,1,3.4-.65,5.09-2.59,2.56-5.61,2.17-8,.94-1.88-.94-2.07-1.88-1.42-2.69a1.5,1.5,0,0,0-.85-2.24,20.48,20.48,0,0,1-2.78-1.13c-1.24-.88-3-2.27-3.6-2.6a43.62,43.62,0,0,0-4.64-2.2c-2.88-1.1-2.75-2.62-2-5.12,5.18-16.33,8.29-17.66,23.65-12.05.2.06.88-.33,1.43-.62a1.47,1.47,0,0,0,.84-1.26c.07-1.82-.61-2.89-2.62-4-3.37-1.82-1.75-3.14.78-3.82a1.16,1.16,0,0,0,.64-.3c8.14-5.8,17-10.79,21.33-20.74,1-2.36,4.28-4,2.95-7.13-1.49-3.33-4-1.84-6.35-.68a2.16,2.16,0,0,1-3.18-.94,2.35,2.35,0,0,1,1.07-3.24c3.08-1.2,4.86-5.12,9.11-3.92,16,4.51,24.46-9.23,35.38-16.33,1.14-.75,3.34-8,6-11.93,1-1.45-1.14-3.89-2-3.46-7.07,3.33-7.39-2.11-10.21-6.29-2.53-3.83-7.61.48-9.66,2.3-6.22,5.64-12.63,6.68-20,4.63a2.05,2.05,0,0,1-1-3.24,4.74,4.74,0,0,0,1.27-4.66c-.88-3.41.94-5.29,3.92-4.44,4.83,1.36,7.84,1.07,8.91-4.73.26-1.3,3.18-2.76,4.86-1.56,2.08,1.46,4,3.08,4.09-.84a3.87,3.87,0,0,1,2-3.53,2.05,2.05,0,0,0-.46-3.63c-3.85-1.3-7-3.89-11.21-3.37-1,.12-3.53-2.69-3.47-4,.26-4.83,5.06-3.6,7.85-5,6-3-4.8-6.09.22-8.78,3.53-1.88,4,1.85,5.61,3.4s3,4.74,6.06,2.31c2.3-1.82,2.36-3.31,1-6.75-1.79-4.56-5.09-8.49-5.68-13.83-.77-7.36-.19-9.11,7.43-9.37,4.47-.13,5.7-.71,2.59-5.25-3.53-5.12-8.43-8.94-10.73-15.46-3.69-10.43-9.2-12.18-19.64-8.75-4.7,1.53-9.2,3.83-13.8,5.77a1.08,1.08,0,0,0-.29.13c-2.17,1.3-3.89,4.38-7,1.62-.42-.35-1-1.26-.88-1.49,1.07-1.65,2.79-1.42,4.41-1.55a2,2,0,0,0,1.75-2.21c-.61-6.19-.55-14.13-5.67-15.68-6.84-2-16.11-.55-22.49,2.85a16.83,16.83,0,0,0-7.26,11.47,2,2,0,0,1-3.47,1.23c-1-1.1-1.68-2.4-2.69-3.37a2,2,0,0,0-3,.52c-2.6,4.67-6.74,7.84-11.38,10.63-2.14,1.33-4.86,4.05-6.09,1.36a6.2,6.2,0,0,1,3.76-8c4.37-1.55,6.93-13.61,3.18-16-9.08-5.67-16.4-14.71-27.58-16.4-2.21-.32-5.64-6.71-7.39.23-.81,3.21-5,6.64-2.59,9.27,5,5.44-.59,3.3-2.27,3.69a1.75,1.75,0,0,1-1.56-.26c-3-2.33-6.09-4.08-8.91.65-2.3,3.89,0,6.9,3,9.69,1.23,1.1,2.3,3.14.84,5.12-2,2.62-5.12,2.75-7.74,2.69-2.86-.07-1.33-2.63-1.3-4.38,0-5.67-6.16-4.34-8.65-7.39-1.14-1.36-3.76-.35-3.79,1.11-.13,6.7-5.06,8.1-9.63,10a2,2,0,0,0-.42,3.47c5.57,4.25-2.72,5.51-4,8.68a2,2,0,0,0,1.78,2.66c1.49,0,3.5,0,4.86,1.46a1.56,1.56,0,0,0,.36.32c-.32,2.37-1,4.87,3.44,5.22,2.56.16,6.64,1.43,7.22,3.18,3.21,9.36,9.6,9.2,16.6,7.84a1.8,1.8,0,0,0,1.16,1.65c1.36.52,3-.06,4.57-.42.88-.16,2-1.36,2.24,1.14.61,6.93.77,6.8,7.9,6.9a6.21,6.21,0,0,1,4.09,1.26,1.91,1.91,0,0,1,.39,2.3,4.74,4.74,0,0,1-2.43,2.11c-.81.32-10.11.42-11.09,0-5-1.91-11.63,2.14-13.25-6.29,0,0-2.46-1.33-3.11-.9-8.23,5.21-14.23,1.81-20.29-4.35-2.62-2.69-6.51-3.53-9.75-.39-2.27-2.56-4.64-4.4-8.82-1.78-5.05,3.15-4.66,6.77-2.3,11,.16,0,.36,0,.52-.06a6,6,0,0,0,.74-.07,3,3,0,0,0,.43.32,3,3,0,0,0-.75.1,2.3,2.3,0,0,0-.71.1,2.65,2.65,0,0,1-.23-.39c-10.37.88-15.1,3.66-21.06,12.51a1,1,0,0,0,1,1.62c2.95-.49,6.45-2.85,8,2.88.39,1.46,1.78-1.71,3.37-2.65,6.38,2.14.87,5.89,1.13,8.81-1.75,2.46-8.2,2-8.65,5.54-3.4-2.56-7-4.7-11.41-4.6a2,2,0,0,0-1.78,1.07,1.28,1.28,0,0,0-.32-.06c-2.66.22-8.17-7.1-7.85,2.75.13,4.34-1.62,8.85,1.14,13.71-5.25-.23-10-3.66-12.67,2.59-1.53,3.66,1,5.51,3,7.13,2.4,1.94,6.87,2.85,5.54,6.74-1.2,3.47-4.47,4.93-8.13,4.83-.26-.65-.49-1.26-.78-1.91,1.23-3.31.32-5-3.37-4.54-3.08-1.33-6.45-4.86-9.5-1.69-2.78,2.89-1.84,6.58.36,9.76l-.36-.19c-1.36,1.55-1.33,1.49-2.46,2.78-.06,0-.06-.1-.1-.13a2,2,0,0,0-2.17-.87c-2.62.68-4.57,3.66-3.86,3.92,9.73,3.53,1.17,6.74,0,9.79-.51,1.36-.55,3.17.3,3.17,2.91,0,5.6,1,5.38,3.89s-4.28.78-5.87,2.63c-2.07,2.33-4,4.89-6.19,7.12a12.75,12.75,0,0,0-3.56,5.45,2,2,0,0,0,2,2.43c2.88-.07,5.44,1.52,8.19,2.3,1.07.29,1.3-5.87,4.77-3,1.88,1.55-1.07,4.44-1,6.48,0,2.82-4.57,5-.81,8.16s6.29-.68,9.3-1.49c1.72-.45,1.62-3.46,4.54-3.56a34.17,34.17,0,0,1-.55,3.53c-.65,2.17-1.78,4.8.9,5.83,2.47,1,2.24-2.1,3.31-3.33,2.88-3.34,6.87-3.21,9.95-.59,4,3.41,8.1,2.79,12.48,1.82,4.86-1.1,9.59-2.08,11.92-7.68,1.43-3.41,5.38-3.24,8.3-2.79,2.46.42,2,3.79,2.3,5.61.78,4.63-3.21,3.4-5.74,3.72-2.91.33-4.92,2.21-7.32,3.8a2,2,0,0,0,.06,3.43c6.91,4.31,14.17,2.2,21,2.3,1.84,0,3.69-4,5.34-.68,1.27,2.46-.39,4.73-3,6.22-2.14,1.23-7.16,3.63-3.85,5.48,7.19,4,2.17,5.8,0,8.3,0,0,0,.06-.06.09-2.82-1.16-5.51-2.2-8.13,1.17-1.79,2.3-.56,3.08.42,5.25,2.59,5.77,4.76-1,6.8-.68v.16a2,2,0,0,0,.29,1.26c2.4,4.35-1.45,5.25-3.88,6.81a2,2,0,0,0-.07,3.34c7.68,4.89,17.89-3.44,25,4.37.78.85,1.66-.55,1.75-1.42,1.3-10.63,11-.1,14.88-4.25a2,2,0,0,1,2.92,0c3.14,3.14,3.14-2.17,4.37-4.18a2,2,0,0,0,.06-1.82c5.32-2,10,3.37,14.43,4.7,4.92,5.32,6.77,11.73,6.64,19.06a393,393,0,0,1-5.7,61.93c-.81,4.5-4,10-4.25,14.26H34.73v32.08H997.34V704.53ZM75.53,539.77c-8.94,13.38-5.31-.84-20.9-9.72S58,523.89,66,514.43c0,0,1.68,0,8.36-4.18s.84,9.17,1.13,15.94S84.45,526.39,75.53,539.77Zm17.31-50.59c-1.82-.58-6.45,2.08-5-3.66.55-2.07-1.46-5.44,3.76-4.83,2.49.23,6.12.42,6.28,4.54A3.8,3.8,0,0,1,92.84,489.18Zm60.63,70.07c-5-9.82-4.18-10.66,9-13.55a2,2,0,0,1,2.27,2.85c-.94,2-2.91,3.34-4.05,5.16s-2.43,3.66-3.79,5.76A2,2,0,0,1,153.47,559.25Zm55-100.3c3.34-1.72,7.55-.68,10.37-.62,5.61.1,14-.45,14.55.91.56.91,4.44-.75,5.45-1.49.65.1,1,.45.94.94-.1,1.81.39,3.95-2,4.76a5.66,5.66,0,0,1-1.85.1c-12.15-1-14.13,8.78-19.31,16.53-3.18,4.63-6.29,8.81-8.79,14.13-2.62,5.57-9.07.58-13.7,0-2.08-.29.58-1.68,1-2.91,5-4.12,11.41-9.24,11.15-16.14C211.29,470.71,208,463.81,208.43,459Zm-22.36,9.14c4.61-2.5,3.57-6.06,2.92-9.53a2,2,0,0,1,3.92-.84c1.14,5.21,1.43,12,8.62,4.7.71,3.43,1.59,7.19,2,10.2-1.26,0-2.75.1-3.86.07-.29-.55-.55-1.2-.87-1.85a2,2,0,0,0-3.53-.23c-1.88,3.12-4.7,2.86-8.1.39C186.27,470.32,184.65,468.9,186.07,468.09Zm9.08,58.43c6.28,0,15.07-3,12.44,9.43a1.93,1.93,0,0,0,.2,1,2,2,0,0,1-1.92,2.88c-6.87-.45-13.28,1.33-19.76,3.63-13.36,4.86-18.12,15.33-20.55,28.36-1.07,5.83,3.73,4.5,5.74,6.19a2.08,2.08,0,0,0,.61.84,0,0,0,0,0,0,0h0a.85.85,0,0,0,.61.26,1.76,1.76,0,0,0,1.49-1.16c5.38-5.09,11.41.51,17,.19,3.05-.16,5.9,3.4,6.55-2.69.16-1.55,1.19-2,2.65-2a2,2,0,0,1,1.75,2.86c-2.33,5-6.9,8.75-8.94,14.09-2.4,6.26-10.37,7.65-15.65,11.38-6.32,4.5-11.48-6.16-16.86.71a32.88,32.88,0,0,0-.42-4c-4.7-22.45.88-41.87,16.89-58.23a4.8,4.8,0,0,0,1.46-2.4C179.53,527.29,187.18,526.48,195.15,526.52Zm-27.26-7.07c3.67-3.63,7.75-2.88,10.08-1.1,3.24,2.5.91,6.71-.61,10.43a2,2,0,0,1-2.5,1.14c-4.08-1.72-3.08-8.49-7-10.31ZM147,521.33c5-1.1,8.62-8.1,15-3.79.88.58,2,2.92,3.44,3.08l.16.35c.32,3.67.81,7.52-6,4.61-.39-.17-1.2.77-1.62.64-3.6-1.06-7.72,4.22-10.79-.87C146.54,524.28,145,521.75,147,521.33Zm-27.09-33.28c3.33-1.43,2.95-5.61,5.57-7.1,3.82-2.14,8-3.72,9.88,2.6.75,2.59-6.8,11.6-10.92,13.15a2,2,0,0,1-1.91-.29,20.46,20.46,0,0,1-4.67-3.92C116.37,490.54,118.64,488.6,119.87,488.05Zm.16,50.46c-1.17-1.46-2.56-4.48-1-4.86,3.44-.94,6.55.16,10.08,2.07a2,2,0,0,1-.09,3.63C125.7,540.87,123,542.23,120,538.51Zm26,66.2a1.72,1.72,0,0,0-.78-.19c-3-5.67-4.25-13.32-5.09-19.54a1.93,1.93,0,0,0,.45-1.46c-.45-4.28-2-9.14-3.5-8.26-8.78,5.31-7.84-2.34-9.94-6.13a2,2,0,0,0-.69-.55c4.44-6.32,9.24-12.41,6.39-21.13-.29-.94,3.21-.74,5-.06,6.29,2.46,8.91,8,10.66,13.83,3.83,13.1,2.56,26.61,2.5,40C150.94,606.2,148.55,605.82,146,604.71Z"/><ellipse class="cls-2" cx="516.04" cy="764.72" rx="11.99" ry="12.03"/><polygon class="cls-2" points="997.34 351.6 291.56 351.6 644.45 223.25 844.93 295.45 844.93 263.37 836.91 263.37 836.91 247.32 901.08 247.32 901.04 263.37 893.01 263.37 893.01 311.5 997.34 351.6"/><path class="cls-1" d="M239.15,776.71a12.66,12.66,0,0,1-4.72-.88,11.12,11.12,0,0,1-3.78-2.51,11.77,11.77,0,0,1-2.5-3.82,13.5,13.5,0,0,1,0-9.64,11.69,11.69,0,0,1,2.51-3.82,11.1,11.1,0,0,1,3.8-2.51,12.48,12.48,0,0,1,4.73-.88,12.61,12.61,0,0,1,5.18,1,10.24,10.24,0,0,1,3.89,3.08L245,760a7.42,7.42,0,0,0-2.49-2.06,6.65,6.65,0,0,0-3-.7,7.07,7.07,0,0,0-2.83.55,6.55,6.55,0,0,0-2.23,1.54,7.19,7.19,0,0,0-1.45,2.36,9.06,9.06,0,0,0,0,6.05,7,7,0,0,0,1.45,2.36,6.58,6.58,0,0,0,2.23,1.55,7.25,7.25,0,0,0,2.83.54,6.53,6.53,0,0,0,3-.71,7.74,7.74,0,0,0,2.49-2.08l3.3,3.19a10.17,10.17,0,0,1-3.89,3.09A12.39,12.39,0,0,1,239.15,776.71Z"/><path class="cls-1" d="M265.43,776.71a12.51,12.51,0,0,1-4.8-.9,11.46,11.46,0,0,1-6.36-6.36,13.39,13.39,0,0,1,0-9.6,11.5,11.5,0,0,1,6.34-6.33,12.46,12.46,0,0,1,4.79-.9,12.64,12.64,0,0,1,4.79.88,11.39,11.39,0,0,1,6.34,6.34,13.47,13.47,0,0,1,0,9.63,11.43,11.43,0,0,1-6.34,6.36A12.76,12.76,0,0,1,265.43,776.71Zm0-4.56a6.61,6.61,0,0,0,2.72-.55A6.82,6.82,0,0,0,270.3,770a7.37,7.37,0,0,0,1.46-2.37,9,9,0,0,0,0-6,7.32,7.32,0,0,0-1.46-2.36,6.7,6.7,0,0,0-2.18-1.57,7.15,7.15,0,0,0-5.45,0,6.31,6.31,0,0,0-2.18,1.57,7.47,7.47,0,0,0-1.45,2.36,9.14,9.14,0,0,0,0,6,7.52,7.52,0,0,0,1.45,2.37,6.41,6.41,0,0,0,2.18,1.56A6.66,6.66,0,0,0,265.4,772.15Z"/><path class="cls-1" d="M284.39,776.71V752.65h4.21l9.35,17h-2.23l9.17-17h4.24v24.06h-4.74l-.07-16.05h.95l-7.41,13.47H295.6l-7.51-13.47h1v16.05Z"/><path class="cls-1" d="M317.48,776.71V752.65h4.2l9.36,17h-2.23l9.17-17h4.23v24.06h-4.74l-.06-16.05h.94l-7.41,13.47h-2.25l-7.51-13.47h1v16.05Z"/><path class="cls-1" d="M355.62,772.24h12v4.47h-17V752.65h16.61v4.46H355.62Zm-.38-9.93h10.58v4.36H355.24Z"/><path class="cls-1" d="M374.77,776.71V752.65h9.51a11.47,11.47,0,0,1,5.09,1.05,7.6,7.6,0,0,1,3.29,3,9.9,9.9,0,0,1,0,9.3,7.46,7.46,0,0,1-3.29,3,11.91,11.91,0,0,1-5.09,1h-6.72l2.32-2.41v9.15Zm5.11-8.53-2.32-2.64H384a5,5,0,0,0,3.52-1.1,4,4,0,0,0,1.19-3.1,3.91,3.91,0,0,0-1.19-3.07,5,5,0,0,0-3.52-1.09h-6.43l2.32-2.64Zm8.89,8.53L383.24,768h5.46l5.53,8.73Z"/><path class="cls-1" d="M411.52,776.71a12.66,12.66,0,0,1-4.72-.88,11.12,11.12,0,0,1-3.78-2.51,11.77,11.77,0,0,1-2.5-3.82,13.5,13.5,0,0,1,0-9.64A11.69,11.69,0,0,1,403,756a11.1,11.1,0,0,1,3.8-2.51,12.48,12.48,0,0,1,4.73-.88,12.61,12.61,0,0,1,5.18,1,10.24,10.24,0,0,1,3.89,3.08l-3.3,3.19a7.42,7.42,0,0,0-2.49-2.06,6.65,6.65,0,0,0-3-.7,7.07,7.07,0,0,0-2.83.55,6.55,6.55,0,0,0-2.23,1.54,7.39,7.39,0,0,0-1.46,2.36,9.23,9.23,0,0,0,0,6.05,7.17,7.17,0,0,0,1.46,2.36,6.58,6.58,0,0,0,2.23,1.55,7.25,7.25,0,0,0,2.83.54,6.53,6.53,0,0,0,3-.71,7.74,7.74,0,0,0,2.49-2.08l3.3,3.19a10.17,10.17,0,0,1-3.89,3.09A12.39,12.39,0,0,1,411.52,776.71Z"/><path class="cls-1" d="M427.13,776.71V752.65h5.11v24.06Z"/><path class="cls-1" d="M437.68,776.71l9.76-24.06h5l9.86,24.06H457l-8.07-21.25h2l-8.06,21.25Zm4.93-5.16,1.28-4.23h11.36l1.32,4.23Z"/><path class="cls-1" d="M467.75,776.71V752.65h5.16v19.52h11v4.54Z"/><path class="cls-1" d="M548.13,776.71V752.65H558a12.16,12.16,0,0,1,5.26,1.05,7.8,7.8,0,0,1,3.41,3,9.61,9.61,0,0,1,0,9.3,7.66,7.66,0,0,1-3.41,3,12.62,12.62,0,0,1-5.26,1h-7l2.41-2.41v9.15Zm5.3-8.53L551,765.54h6.66a5.32,5.32,0,0,0,3.64-1.1,3.93,3.93,0,0,0,1.24-3.1,3.84,3.84,0,0,0-1.24-3.07,5.31,5.31,0,0,0-3.64-1.09H551l2.41-2.64Zm9.19,8.53L556.91,768h5.65l5.72,8.73Z"/><path class="cls-1" d="M580.53,772.24H592.9v4.47H575.29V752.65h17.19v4.46h-12Zm-.39-9.93h11v4.36h-11Z"/><path class="cls-1" d="M607.85,776.71a18.31,18.31,0,0,1-5.25-.75,12.27,12.27,0,0,1-4-1.94l1.78-4.06a12.4,12.4,0,0,0,3.45,1.75,12.67,12.67,0,0,0,4.06.68,7.93,7.93,0,0,0,2.52-.33,3.18,3.18,0,0,0,1.41-.89,1.94,1.94,0,0,0,.45-1.28,1.73,1.73,0,0,0-.71-1.47,5.7,5.7,0,0,0-1.9-.9c-.79-.23-1.65-.46-2.59-.67s-1.86-.46-2.8-.76a11.3,11.3,0,0,1-2.61-1.2,5.6,5.6,0,0,1-1.88-2,6.08,6.08,0,0,1-.7-3,6.71,6.71,0,0,1,1-3.64,7.08,7.08,0,0,1,3.17-2.62,12.68,12.68,0,0,1,5.34-1,16.87,16.87,0,0,1,4.24.53,12.15,12.15,0,0,1,3.66,1.53l-1.66,4a12.71,12.71,0,0,0-3.15-1.34,11.65,11.65,0,0,0-3.12-.45,7.18,7.18,0,0,0-2.5.35,2.84,2.84,0,0,0-1.38.94,2.21,2.21,0,0,0-.44,1.33,1.82,1.82,0,0,0,.72,1.5,5.22,5.22,0,0,0,1.88.88c.78.21,1.65.42,2.6.63a29,29,0,0,1,2.83.78,12.23,12.23,0,0,1,2.56,1.18,5.45,5.45,0,0,1,2.63,4.94,6.46,6.46,0,0,1-1.05,3.58,7.37,7.37,0,0,1-3.2,2.63A12.63,12.63,0,0,1,607.85,776.71Z"/><path class="cls-1" d="M624.29,776.71V752.65h5.29v24.06Z"/><path class="cls-1" d="M638.19,776.71V752.65h10.33a13.71,13.71,0,0,1,6.53,1.49,11.08,11.08,0,0,1,4.42,4.19,13.46,13.46,0,0,1,0,12.69,11,11,0,0,1-4.42,4.19,13.71,13.71,0,0,1-6.53,1.5Zm5.29-4.54h4.78a8.12,8.12,0,0,0,4-.91,6.47,6.47,0,0,0,2.6-2.61,9.07,9.07,0,0,0,0-8,6.51,6.51,0,0,0-2.6-2.6,8.23,8.23,0,0,0-4-.91h-4.78Z"/><path class="cls-1" d="M673.5,772.24h12.38v4.47H668.27V752.65h17.19v4.46h-12Zm-.39-9.93h10.95v4.36H673.11Z"/><path class="cls-1" d="M693.32,776.71V752.65h4.35L711.09,770H709V752.65h5.2v24.06h-4.36l-13.41-17.33h2.11v17.33Z"/><path class="cls-1" d="M727.53,776.71V757.18h-7.28v-4.53h19.82v4.53H732.8v19.53Z"/><path class="cls-1" d="M746.15,776.71V752.65h5.29v24.06Z"/><path class="cls-1" d="M757.06,776.71l10.1-24.06h5.2l10.2,24.06H777l-8.35-21.25h2.11l-8.34,21.25Zm5.1-5.16,1.33-4.23h11.76l1.37,4.23Z"/><path class="cls-1" d="M788.19,776.71V752.65h5.29v19.52h11.34v4.54Z"/><path class="cls-2" d="M355.61,463.89V367.65h59.94v18.59H386.09V405h28.27v18.1H386.09v22h31.42v18.76Z"/><path class="cls-1" d="M422.94,463.89l16.09-51-12.77-45.25h29.29l7.75,33.06,6.9-33.06h29.37L486.8,412.9l16,51H472.49L463,426.29l-9.7,37.6Z"/><path class="cls-1" d="M524.52,463.89V386.13h-17.8V367.65h65.57v18.48h-17.8v77.76Z"/><path class="cls-1" d="M580.63,463.89V367.65h59.94v18.59H611.11V405h28.27v18.1H611.11v22h31.42v18.76Z"/><path class="cls-1" d="M652.41,463.89V367.65h46q11.49,0,17.37,3.36a16.63,16.63,0,0,1,7.87,9.4,45.08,45.08,0,0,1,2,14.19q0,7.88-3.1,12.58t-11.71,6.51q7.06.93,9.92,4.51a14.44,14.44,0,0,1,2.85,9.27v36.42H694V426.21c0-2.8-.89-4.55-2.68-5.22s-4.67-1-8.64-1v43.91Zm30.48-60.59h7.24q6.21,0,6.22-8.7,0-5.62-1.37-7.38c-.91-1.16-2.61-1.75-5.11-1.75h-7Z"/><path class="cls-1" d="M734.15,463.89V367.65h29v96.24Z"/><path class="cls-1" d="M810.78,463.89q-18,0-27.46-6.85t-9.49-19.79v-44.9q0-12.14,9.41-18.42t27.54-6.28q18.13,0,27.54,6.28t9.41,18.42v44.9q0,12.94-9.49,19.79T810.78,463.89Zm.26-17.4q6.81,0,6.81-8.33V392q0-7-6.65-7-7.49,0-7.49,7.14v46.08q0,4.41,1.7,6.31C806.55,445.85,808.42,446.49,811,446.49Z"/><path class="cls-1" d="M859.82,463.89V367.65h46q11.51,0,17.37,3.36a16.65,16.65,0,0,1,7.88,9.4,45.37,45.37,0,0,1,2,14.19q0,7.88-3.11,12.58t-11.71,6.51q7.07.93,9.92,4.51a14.45,14.45,0,0,1,2.86,9.27v36.42H901.46V426.21c0-2.8-.89-4.55-2.68-5.22s-4.67-1-8.65-1v43.91Zm30.49-60.59h7.23q6.23,0,6.22-8.7c0-3.75-.46-6.21-1.36-7.38s-2.62-1.75-5.11-1.75h-7Z"/><path class="cls-2" d="M388.89,576.18q-17.67,0-25.47-6.45t-7.81-20.51V540h25.51V551.8a8.59,8.59,0,0,0,1.35,5.13q1.36,1.85,4.73,1.85c2.35,0,4-.5,4.88-1.5s1.35-2.65,1.35-4.95a19.66,19.66,0,0,0-1.17-7.27,15.53,15.53,0,0,0-4.07-5.59,76.14,76.14,0,0,0-8-6.2l-11.58-8.06q-13-9-13-20.52,0-12.09,7.66-18.42t22.17-6.34q17.74,0,25.18,6.93t7.44,21.05H391.82v-6.49a3.48,3.48,0,0,0-1.5-3,6.85,6.85,0,0,0-4.07-1.08,6.77,6.77,0,0,0-4.51,1.26,4.17,4.17,0,0,0-1.43,3.26,8.11,8.11,0,0,0,1.47,4.29,21.22,21.22,0,0,0,5.79,5.32l14.88,10.47a76,76,0,0,1,8.21,6.58,27.71,27.71,0,0,1,6,8.06,25.12,25.12,0,0,1,2.27,11.2q0,13.32-6.7,20.86T388.89,576.18Z"/><path class="cls-1" d="M458.31,576.18q-15.46,0-23.64-6.85t-8.18-19.79v-44.9q0-12.13,8.1-18.43t23.72-6.28q15.6,0,23.71,6.28t8.1,18.43v44.9q0,12.94-8.17,19.79T458.31,576.18Zm.22-17.4q5.85,0,5.86-8.33V504.32q0-7-5.72-7-6.45,0-6.45,7.15v46.08q0,4.41,1.47,6.31C454.66,558.14,456.28,558.78,458.53,558.78Z"/><path class="cls-1" d="M500.53,576.18V479.93h25.8v79.85h26.54v16.4Z"/><path class="cls-1" d="M590,576.18q-16.12,0-23.75-6.69t-7.63-19.7V479.93h25.08V549a28.33,28.33,0,0,0,.36,4.58,6.73,6.73,0,0,0,1.69,3.6,5.58,5.58,0,0,0,4.25,1.41q3,0,4.32-1.38a6.42,6.42,0,0,0,1.65-3.6,31.36,31.36,0,0,0,.33-4.61v-69.1H621.4v69.86q0,13-7.62,19.7T590,576.18Z"/><path class="cls-1" d="M642.37,576.18V498.42H627.05V479.93h56.44v18.49H668.17v77.76Z"/><path class="cls-1" d="M689.5,576.18V479.93h24.92v96.25Z"/><path class="cls-1" d="M755.47,576.18q-15.47,0-23.64-6.85t-8.17-19.79v-44.9q0-12.13,8.1-18.43t23.71-6.28q15.62,0,23.71,6.28t8.1,18.43v44.9q0,12.94-8.17,19.79T755.47,576.18Zm.22-17.4q5.87,0,5.87-8.33V504.32q0-7-5.72-7-6.45,0-6.45,7.15v46.08q0,4.41,1.47,6.31T755.69,558.78Z"/><path class="cls-1" d="M797.69,576.18V479.93h26.53L836.1,526v-46.1H861v96.25H835.81l-12.9-48.13v48.13Z"/><path class="cls-1" d="M903.1,576.18q-17.67,0-25.47-6.45t-7.81-20.51V540h25.51V551.8a8.52,8.52,0,0,0,1.36,5.13c.9,1.23,2.48,1.85,4.72,1.85s4-.5,4.88-1.5,1.36-2.65,1.36-4.95a19.45,19.45,0,0,0-1.18-7.27,15.42,15.42,0,0,0-4.07-5.59,75.1,75.1,0,0,0-8-6.2l-11.58-8.06q-13-9-13-20.52,0-12.09,7.66-18.42t22.18-6.34q17.73,0,25.18,6.93t7.43,21.05H906v-6.49a3.48,3.48,0,0,0-1.5-3,8.46,8.46,0,0,0-8.58.18,4.16,4.16,0,0,0-1.42,3.26,8.09,8.09,0,0,0,1.46,4.29,21.37,21.37,0,0,0,5.79,5.32l14.88,10.47a76,76,0,0,1,8.21,6.58,27.54,27.54,0,0,1,6,8.06,25,25,0,0,1,2.28,11.2q0,13.32-6.71,20.86T903.1,576.18Z"/><path class="cls-2" d="M387.39,688.48q-15.45,0-23.62-6.85t-8.16-19.79V616.93q0-12.13,8.09-18.42t23.69-6.29q15.6,0,23.69,6.29t8.09,18.42v44.91q0,12.93-8.17,19.79T387.39,688.48Zm.22-17.4q5.85,0,5.86-8.33V616.61q0-7-5.71-7-6.45,0-6.45,7.14v46.09c0,2.93.49,5,1.47,6.3S385.36,671.08,387.61,671.08Z"/><path class="cls-1" d="M431.93,688.48V592.22h24.76l11.09,46.11V592.22H491v96.26H467.5l-12-48.13v48.13Z"/><path class="cls-1" d="M505.43,688.48l11.63-96.26h40.83l11.43,96.26H546.54L544.83,673h-14.5l-1.51,15.53ZM532,657.58H543l-5.27-49h-1.09Z"/><path class="cls-1" d="M592.26,688.48V610.71H578V592.22h52.67v18.49h-14.3v77.77Z"/><path class="cls-1" d="M644.35,688.48V592.22h48.16v18.6H668.84v18.76h22.71v18.1H668.84v22h25.24v18.76Z"/><path class="cls-1" d="M711.62,688.48l4.51-12.68h-8.68v-16H733v15.52l-7,13.16Z"/><path class="cls-1" d="M778.36,672.44V608.27h16V661.5h16.51v10.94Z"/><path class="cls-1" d="M820.15,672.44V608.27H836.2V661.5h16.51v10.94Z"/><path class="cls-1" d="M880.72,672.44q-8.75,0-14.08-4.26t-5.33-11.93V627.17q0-9.17,4.64-14t15.14-4.87a29.46,29.46,0,0,1,10.18,1.64,15.39,15.39,0,0,1,7,4.93,13,13,0,0,1,2.57,8.25V634h-16v-9.31c0-1.89-.31-3.16-.91-3.81a3.7,3.7,0,0,0-2.84-1c-1.5,0-2.51.42-3,1.27a6.51,6.51,0,0,0-.77,3.38v31.55a5.48,5.48,0,0,0,1,3.69,3.62,3.62,0,0,0,2.82,1.08,3.18,3.18,0,0,0,2.9-1.33,6.24,6.24,0,0,0,.85-3.44V644.72h16.21v11.93q0,8.29-5.36,12.05T880.72,672.44Z"/></g></svg>